<svg width="46" height="46" viewBox="0 0 46 46" fill="none" xmlns="http://www.w3.org/2000/svg">
<g clip-path="url(#clip0_8_864)">
<path fill-rule="evenodd" clip-rule="evenodd" d="M10.0625 34.6797C12.4823 34.6797 12.9615 34.3323 13.5604 34.3203V24.1739C13.5604 22.4969 12.5781 21.0474 11.7036 20.1969C10.8891 19.4182 9.00833 18.6156 7.90625 18.0646L2.0125 15.1656C1.53333 14.926 0.443228 14.3151 0.0119781 14.2073V21.6224C0.0598948 23.0239 0.155728 24.3177 0.347395 25.288C0.586978 26.462 1.03021 27.8635 1.50937 28.8937C2.27604 30.5349 2.92292 31.4932 4.45625 32.6911C5.72604 33.6614 7.83437 34.6797 10.0625 34.6797Z" fill="#FF664E"/>
<path fill-rule="evenodd" clip-rule="evenodd" d="M32.4276 24.0781V34.3203C33.0385 34.3323 33.5177 34.6797 35.9255 34.6797C38.8724 34.6797 41.9391 32.8948 43.4245 30.7625C43.9516 30.0078 44.4547 29.1214 44.7661 28.2469C45.5688 25.9708 45.988 24.4495 45.988 21.838V21.7182C45.988 19.6099 45.988 17.5016 45.988 15.3932V15.2734V15.1536V15.0339V14.9141V14.7943V14.6745V14.5547V14.4349V14.3151V14.1953L38.1417 18.0286C37.0156 18.5917 35.2187 19.3583 34.3802 20.101C33.5057 20.8797 32.4276 22.4729 32.4276 24.0781Z" fill="#FF664E"/>
<path fill-rule="evenodd" clip-rule="evenodd" d="M21.6464 25.3359H24.3417V28.0312H21.6464V25.3359ZM16.2557 32.5234H29.7323V21.7422H16.2557V32.5234Z" fill="#FF664E"/>
<path fill-rule="evenodd" clip-rule="evenodd" d="M21.6464 37.8182C21.6464 38.1537 21.3469 38.0818 20.688 38.2974C18.2802 39.112 16.2557 41.6995 16.2557 44.1912V45.988H29.7323C29.7323 43.3886 29.7802 42.2985 28.0432 40.1302C27.3005 39.2078 26.0068 38.4771 24.8208 38.1417C24.126 37.95 24.3417 38.1656 24.3417 35.2068H21.6464V37.8182Z" fill="#FF664E"/>
<path fill-rule="evenodd" clip-rule="evenodd" d="M21.6464 2.875H18.951C18.951 6.02552 18.6036 6.27708 19.9333 8.26562C19.7776 8.36146 18.8073 9.51146 18.6755 9.70312C19.1786 9.94271 19.1188 9.58333 21.3708 10.7812C21.7182 10.2661 22.1854 9.94271 22.2693 9.61927H23.7068C23.8026 9.96667 24.2219 10.2182 24.6052 10.7812C26.8693 9.58333 26.7854 9.95469 27.3005 9.70312C27.1688 9.51146 26.1984 8.36146 26.0427 8.26562C26.3063 7.87031 26.462 7.72656 26.7016 7.22344C27.2047 6.19323 27.025 4.2526 27.025 2.875H24.3297V0H21.6344V2.875H21.6464Z" fill="#FF664E"/>
<path fill-rule="evenodd" clip-rule="evenodd" d="M13.5604 16.1718V17.6932H16.2557V19.0468H21.6464C21.6464 16.5911 22.0057 15.0458 20.4604 13.5005C19.2026 12.2427 17.4177 11.9552 15.8365 12.6979C14.6865 13.237 13.5604 14.6026 13.5604 16.1718Z" fill="#FF664E"/>
<path fill-rule="evenodd" clip-rule="evenodd" d="M24.3417 16.1719V19.0469H29.7323V17.7052H32.4276C32.4276 15.9443 32.5833 14.8542 31.2417 13.5005C28.5703 10.8292 24.3417 12.9615 24.3417 16.1719Z" fill="#FF664E"/>
<path fill-rule="evenodd" clip-rule="evenodd" d="M27.037 36.201C27.4922 36.3089 27.9474 36.6562 28.3188 36.8958C28.7979 37.2193 29.0375 37.4349 29.4448 37.8302C31.0141 39.4115 30.2474 39.088 31.5651 39.7469C32.6073 40.274 32.9547 40.8729 33.6135 41.7474C33.8292 42.0349 35.2307 43.7958 35.3026 44.0953C35.8417 43.9516 37.0635 42.6937 37.5427 42.574C37.4469 42.2026 35.7937 40.1182 35.4344 39.651C34.6557 38.5969 34.0208 37.9141 32.775 37.2792C31.9125 36.8359 30.8583 36.5604 29.7203 36.5604V35.2188H27.025V36.201H27.037Z" fill="#FF664E"/>
<path fill-rule="evenodd" clip-rule="evenodd" d="M16.2557 36.5604C15.1297 36.5604 14.1594 36.812 13.2609 37.2432C12.051 37.8302 11.3443 38.5849 10.5896 39.6031L9.12812 41.5557C8.9125 41.8432 8.52917 42.2625 8.44531 42.5859C8.74479 42.6698 9.27188 43.137 9.55938 43.3526C9.85885 43.5802 10.362 44.0234 10.6854 44.1073C10.7693 43.8078 12.1708 42.0469 12.3745 41.7594C14.6146 38.7766 14.4708 40.3698 15.549 38.9083C16.1479 38.0937 17.9687 36.4286 18.951 36.201V35.2188H16.2557V36.5604Z" fill="#FF664E"/>
</g>
<defs>
<clipPath id="clip0_8_864">
<rect width="46" height="46" fill="white"/>
</clipPath>
</defs>
</svg>
