<svg width="38" height="46" viewBox="0 0 38 46" fill="none" xmlns="http://www.w3.org/2000/svg">
<g clip-path="url(#clip0_8_874)">
<path fill-rule="evenodd" clip-rule="evenodd" d="M5.84615 18.6826C5.84615 16.2874 6.52821 14.3234 7.57564 12.2994C9.13462 9.32934 12.7032 6.77844 16.0647 6.09581C18.8295 5.53293 21.8622 5.68862 24.3833 6.91018C25.516 7.46108 25.4308 7.4012 26.4782 8.08383C27.9276 9.01796 29.6205 10.8144 30.4122 12.2994C31.1308 13.6647 31.3744 14.1796 31.7763 15.8084C32.2513 17.7006 32.2513 19.6647 31.7763 21.5569C31.3013 23.4491 30.8019 24.503 29.7667 26.0479C28.975 27.2335 27.6718 28.503 26.4782 29.2814C23.3846 31.2934 19.7673 32.1557 16.0647 31.2575C12.9103 30.491 10.0115 28.7186 8.20897 26.0479C7.74615 25.3533 7.40513 24.7545 7.01538 23.988C6.32115 22.5749 5.84615 20.3353 5.84615 18.6826ZM18.05 0H19.95C21.7404 0.0958084 23.5551 0.45509 25.4795 1.08982C26.0641 1.28144 26.5026 1.50898 27.0994 1.7485C27.8667 2.05988 29.316 2.92216 29.9859 3.4012C32.3 5.07784 32.0808 5.13772 33.5545 6.62275C34.7603 7.83233 36.3314 10.6587 36.9038 12.3114C37.8782 15.2096 38 16.2874 38 19.4012C38 23.8683 35.6737 28.7425 32.5436 31.8204C31.9833 32.3713 29.9128 34.2275 29.2308 34.4072V44.1078C29.2429 45.2695 28.9263 45.988 27.5865 45.988C27.0263 45.988 19.4506 41.8922 19 41.8922C18.7686 41.8922 15.2974 43.6647 14.7372 43.9521C13.9942 44.3114 13.3244 44.6467 12.6058 45.006C11.8141 45.3892 11.0224 45.9401 10.2917 46H10.0359C9.67051 45.9641 9.32949 45.7964 9.025 45.3892C8.70833 44.982 8.76923 44.6946 8.76923 44.024V34.4072C8.34295 34.2994 7.38077 33.485 6.99103 33.1856C5.41987 31.976 3.78782 30.1317 2.76474 28.4431C0.742949 25.0898 0 22.4311 0 17.9641C0 16.6707 0.267949 15.0898 0.560256 14.024C0.986538 12.4671 1.16923 12.1437 1.76603 10.7186C2.08269 9.96407 2.95962 8.53892 3.44679 7.88024C4.88397 5.96407 6.06538 4.80239 8.0141 3.38922C9.19551 2.52695 11.1686 1.52096 12.5205 1.07784C14.4449 0.45509 16.2596 0.0958084 18.05 0Z" fill="#FF664E"/>
<path fill-rule="evenodd" clip-rule="evenodd" d="M16.9904 19.5808C17.4897 19.3173 18.6955 18.0718 19.1583 17.6766L21.3019 15.7485C21.6429 15.4371 22.4833 14.6347 22.8731 14.503C24.5295 13.9281 25.5526 16 24.1641 17.0299L18.3788 22.2036C17.916 22.6347 17.4532 23.1856 16.5519 22.8862C16.0769 22.7305 14.7494 21.4611 14.2744 20.994C14.0064 20.7305 13.7506 20.6108 13.5436 20.3712C12.4474 19.0898 14.0308 17.2814 15.4923 18.2754C15.9673 18.5868 16.4545 19.2335 16.9904 19.5808ZM8.76923 18.2395C8.76923 21.3772 9.57307 23.6527 11.7654 25.8084C16.6494 30.6108 24.9436 29.509 28.2686 23.0299C29.5596 20.503 29.584 16.9341 28.3051 14.4072C27.684 13.1976 27.1846 12.479 26.259 11.5688C22.2519 7.62872 15.7968 7.61674 11.7776 11.5688C10.0846 13.2215 8.76923 15.6646 8.76923 18.2395Z" fill="#FF664E"/>
</g>
<defs>
<clipPath id="clip0_8_874">
<rect width="38" height="46" fill="white"/>
</clipPath>
</defs>
</svg>
