<svg width="37" height="40" viewBox="0 0 37 40" fill="none" xmlns="http://www.w3.org/2000/svg">
<g clip-path="url(#clip0_7_854)">
<path fill-rule="evenodd" clip-rule="evenodd" d="M19.6129 23.2752C18.542 23.2752 18.479 23.119 17.702 22.3588C17.2611 21.9214 16.8831 21.5465 16.4421 21.1091C15.6967 20.3697 14.2582 19.2033 14.2582 18.3598C14.2582 17.1934 15.0247 16.6415 16.1481 16.6415C17.0721 16.6415 18.4895 18.6514 19.2245 19.1408L24.7367 12.3405C25.6291 11.1742 27.729 11.674 27.729 13.3611C27.729 14.1422 26.5636 15.3606 25.9756 16.0791L21.9438 21.0674C21.3663 21.786 20.3794 23.2752 19.6129 23.2752ZM12.5993 19.8386C12.5993 21.3694 12.9248 22.2442 13.6808 23.3689C16.3371 27.3262 23.4977 26.6493 24.3797 20.5051C24.4847 19.7553 24.3377 19.4845 24.7472 18.9951C25.7761 17.7454 27.7185 18.391 27.7185 20.0677C27.7185 22.4108 26.6581 24.8373 25.0621 26.4098C19.277 32.127 9.292 28.326 9.292 19.8386C9.292 11.6949 20.1589 8.66441 20.1589 12.4134C20.1589 13.0695 19.9909 13.3819 19.5499 13.7672C18.689 14.5171 17.5761 13.6423 15.2872 15.0898C13.7753 16.0479 12.5993 17.9016 12.5993 19.8386ZM0 13.9859C0 16.1416 0.125993 17.5371 0.419977 19.5053C0.524972 20.2031 0.692963 21.0987 0.871453 21.7964C1.06044 22.5566 1.27043 23.2231 1.49092 23.9104C2.25738 26.3369 3.25482 28.3051 4.65125 30.3879L5.81669 31.9604C6.34166 32.5957 7.53859 33.9287 8.13706 34.4285L9.2815 35.397C11.3709 37.0841 13.7753 38.4483 16.3056 39.3647C16.7256 39.521 18.059 40 18.5 40C19.7704 40 23.1407 38.3338 24.4112 37.6569C25.8391 36.8862 26.7946 36.126 28.023 35.1471L29.8289 33.5017C35.7506 27.6282 37.714 18.4535 36.7795 10.2473C36.7165 9.64332 36.643 9.04973 36.5275 8.46655C36.37 7.65426 36.3595 7.63343 35.6141 7.34184L22.7838 1.92658C21.7968 1.46837 19.025 0 18.4265 0C18.1325 0 16.0641 1.05181 15.6652 1.24967L12.2318 2.84301C9.292 4.24889 4.55675 6.09216 1.45942 7.3106C0.74546 7.59177 0.661464 7.56053 0.503973 8.39365C0.199489 9.93491 0 12.403 0 13.9859Z" fill="#FF664E"/>
</g>
<defs>
<clipPath id="clip0_7_854">
<rect width="37" height="40" fill="white"/>
</clipPath>
</defs>
</svg>
