<svg width="47" height="40" viewBox="0 0 47 40" fill="none" xmlns="http://www.w3.org/2000/svg">
<g clip-path="url(#clip0_8_860)">
<path fill-rule="evenodd" clip-rule="evenodd" d="M27.9062 21.5688L27.1719 18.8004C25.9724 18.825 21.5539 20.6337 20.3422 21.5318C20.0484 21.7533 16.6948 26.355 16.1807 27.044L15.0547 28.6681H10.6484L6.89089 23.5989C6.47474 23.5989 5.59349 24.2264 5.32422 24.4233C4.92031 24.7309 4.44297 25.1984 4.14922 25.6413C3.18229 27.0809 2.76615 28.8773 3.21901 30.7967L0 32.913C0.0856771 33.2575 0.709896 34.3156 0.917969 34.6724L3.76979 39.9262H5.78932C5.88724 39.5694 6.13203 39.4709 6.36458 39.2126C6.71953 38.8065 7.28255 38.0806 7.67422 37.7607C9.41224 36.4196 10.3792 35.7675 13.1331 35.7675C16.1318 35.7675 17.5393 37.5884 19.0938 38.6343C19.7547 39.0772 20.232 39.2987 21.0521 39.6186C23.8182 40.7013 26.0703 39.1141 28.249 38.7819C29.5464 38.5851 31.1987 39.2987 33.2427 38.5481C33.9281 38.3021 34.3076 37.9945 34.8461 37.5761C35.6294 36.9609 36.3026 35.0292 37.5388 35.0292C38.6526 35.0292 38.9586 35.7306 39.5583 36.1366L42.1286 34.8447C42.5081 36.4688 42.7773 36.7887 42.7773 38.8188H45.6169C45.6169 36.4319 45.0417 34.6109 44.3563 32.8883C44.0013 32.0025 43.7076 31.2027 43.3526 30.3045L42.3122 27.7453H40.4763C40.9904 26.6749 41.5289 25.7521 41.7737 24.5217C41.9573 23.5866 42.1042 21.8271 43.0466 21.1873C43.3036 21.3842 43.3036 21.5688 43.4505 21.8887L44.4297 24.3248L47 23.3159C46.9755 22.9714 46.5839 22.147 46.4615 21.8271C46.2656 21.3227 46.0943 20.8797 45.8862 20.3753C45.5068 19.4525 45.0906 18.4313 44.7234 17.4839L42.9854 13.1529C42.8141 12.7346 42.5203 12.0947 42.4224 11.6887C40.6109 12.1194 39.7909 12.2301 38.2242 13.5589C36.168 15.2938 36.2292 16.9425 34.1484 18.5912C33.8547 18.825 33.6221 19.0095 33.3161 19.231C31.0885 20.9167 28.5305 21.2612 27.9062 21.5688Z" fill="#FF664E"/>
<path fill-rule="evenodd" clip-rule="evenodd" d="M8.26172 9.84318C8.26172 5.78289 12.5333 3.97421 15.3729 5.93053C17.368 7.30857 17.8943 9.79396 16.8661 11.8487C16.5479 12.4885 16.3766 12.6239 15.9115 13.1037C15.2383 13.7927 13.9776 14.3956 12.7169 14.3095C11.8602 14.2603 11.5297 14.1742 10.9299 13.9035C9.44896 13.2514 8.26172 11.6765 8.26172 9.84318ZM3.12109 9.75705C3.12109 14.1742 5.67917 17.3978 8.05365 20.5845L11.7745 25.6045C12.1539 26.1335 11.8234 25.9982 13.4023 25.9982C13.7328 25.9982 14.6385 24.5586 14.8344 24.3003C16.1685 22.5039 19.0326 18.8127 20.1219 17.0656C23.0471 12.3778 23.7203 6.97637 19.5711 2.81765C19.106 2.3501 18.8122 2.11632 18.2737 1.7226C14.7487 -0.935046 9.31432 -0.492105 5.98516 2.85456C4.47969 4.38024 3.12109 6.7672 3.12109 9.75705Z" fill="#FF664E"/>
<path fill-rule="evenodd" clip-rule="evenodd" d="M12.7536 11.6025C14.5039 11.6025 15.2505 9.73235 14.1979 8.48965C13.2432 7.35769 10.9299 7.91137 10.9422 9.75696C10.9544 10.6797 11.7867 11.6025 12.7536 11.6025Z" fill="#FF664E"/>
</g>
<defs>
<clipPath id="clip0_8_860">
<rect width="47" height="40" fill="white"/>
</clipPath>
</defs>
</svg>
