<svg width="38" height="37" viewBox="0 0 38 37" fill="none" xmlns="http://www.w3.org/2000/svg">
<g clip-path="url(#clip0_8_856)">
<path fill-rule="evenodd" clip-rule="evenodd" d="M24.1161 19.4346C25.65 19.4346 26.5604 19.6177 27.738 20.7547C28.124 21.1305 28.3417 21.4195 28.599 21.9398C30.0536 24.9172 27.6391 28.251 24.7891 28.251C23.1859 28.251 22.3547 28.0005 21.1672 26.8635C19.2969 25.0617 19.5443 21.988 21.7016 20.3307C22.325 19.8586 23.2453 19.4346 24.1161 19.4346ZM18.337 0H19.7026C21.0583 0.0481771 22.4042 0.23125 23.7005 0.549219C26.9266 1.34896 28.8266 2.52448 31.2708 4.37448C31.8943 4.84661 32.4781 5.43437 33.0026 6.0125C33.7547 6.84115 33.8438 6.91823 34.5365 7.84323C35.1698 8.70078 35.7437 9.67396 36.2385 10.6664C37.5844 13.4029 37.9901 15.8214 37.9901 19.1456C37.9901 21.6893 37.0797 24.657 36.2089 26.3721C35.6844 27.4031 34.7641 28.9544 34.0021 29.8602C32.3495 31.8161 30.8057 33.2133 28.5396 34.5141C28.0547 34.7935 27.5599 35.0729 27.0354 35.2849C25.8974 35.757 24.9573 36.1424 23.6411 36.4604C21.5234 36.9711 20.524 36.9904 18.426 36.9904H18.3271C15.7146 36.9904 12.6667 36.1039 10.9052 35.256C8.96562 34.3214 8.3026 33.8107 6.71927 32.6159C6.08594 32.1341 4.9776 31.026 4.46302 30.4094C4.35417 30.2841 4.30469 30.2456 4.18594 30.101C3.3349 29.0411 2.28594 27.5188 1.76146 26.324C0.336458 23.0768 0 21.4484 0 17.8448C0 14.193 1.48437 10.5797 3.48333 7.80469C4.38385 6.55208 5.83854 5.02005 7.07552 4.07578C7.20417 3.97943 7.30312 3.91198 7.41198 3.82526C7.54062 3.72891 7.5901 3.67109 7.73854 3.5651C8.64896 2.90026 9.89583 2.19688 10.9448 1.70547C13.1911 0.664844 15.7542 0.0867187 18.337 0ZM8.90625 13.1523C8.90625 10.7917 10.7568 8.88385 13.3693 8.68151C13.5474 8.67188 14.1312 8.74896 14.3589 8.7875C14.7052 8.84531 14.9625 8.9224 15.2198 9.03802C15.7542 9.26927 16.2193 9.52943 16.6151 9.92448C17.6344 10.9266 18.0401 11.7263 18.0401 13.374C18.0401 14.9927 16.912 16.3995 15.5661 17.1125C12.7161 18.5964 8.90625 16.4573 8.90625 13.1523ZM11.3505 27.1719C10.5786 27.1719 10.0937 26.6997 10.0937 25.9482C10.0937 25.3701 11.3901 24.2812 11.9344 23.7609L24.3635 11.6589C25.0167 11.0229 26.0161 9.83776 26.7187 9.83776C27.4214 9.83776 27.9062 10.3388 27.9062 11.0615C27.9062 11.5336 27.3818 11.9672 27.1047 12.237L12.5974 26.3529C12.3203 26.6323 11.8552 27.1719 11.3505 27.1719Z" fill="#FF664E"/>
<path fill-rule="evenodd" clip-rule="evenodd" d="M22.2656 23.7706C22.2656 26.7865 26.7188 26.6419 26.7188 23.838C26.7188 22.6432 25.749 21.67 24.4229 21.67C23.2849 21.6797 22.2656 22.6721 22.2656 23.7706Z" fill="#FF664E"/>
<path fill-rule="evenodd" clip-rule="evenodd" d="M11.2812 12.9307C11.2812 15.301 13.7255 15.937 15.012 14.6844C15.2693 14.4339 15.3286 14.4146 15.487 14.0677C16.1797 12.6128 15.2693 10.9844 13.2802 10.9844C12.3302 10.9844 11.2812 12.0057 11.2812 12.9307Z" fill="#FF664E"/>
</g>
<defs>
<clipPath id="clip0_8_856">
<rect width="38" height="37" fill="white"/>
</clipPath>
</defs>
</svg>
