<svg width="37" height="37" viewBox="0 0 37 37" fill="none" xmlns="http://www.w3.org/2000/svg">
<g clip-path="url(#clip0_8_877)">
<path fill-rule="evenodd" clip-rule="evenodd" d="M12.3333 3.93639C12.3333 2.97028 12.8267 2.46667 13.8031 2.46667H23.2072C24.1528 2.46667 24.6769 2.99083 24.6769 3.93639V7.4H12.3333V3.93639ZM9.86667 3.39167V7.4H3.39167C2.59 7.4 1.59306 7.92417 1.05861 8.45861C0.524167 8.99306 0 9.99 0 10.7917V20.9667H37V10.7917C37 9.11639 35.2836 7.4 33.6083 7.4H27.1333V3.39167C27.1333 2.59 26.6092 1.59306 26.0747 1.05861C25.5506 0.524167 24.5536 0 23.7417 0H13.2583C12.0558 0 10.7814 0.925 10.2264 2.05556C10.0619 2.38444 9.86667 2.93944 9.86667 3.39167Z" fill="#FF664E"/>
<path fill-rule="evenodd" clip-rule="evenodd" d="M0 33.6083C0 35.2836 1.71639 37 3.39167 37H33.6083C34.0606 37 34.6156 36.8047 34.9444 36.6403C36.075 36.0853 37 34.8109 37 33.6083V23.4333H23.4333V26.9072C23.4333 27.8528 22.9092 28.377 21.9636 28.377H15.0261C14.0806 28.377 13.5564 27.8528 13.5564 26.9072V23.4333H0V33.6083Z" fill="#FF664E"/>
<path fill-rule="evenodd" clip-rule="evenodd" d="M16.0333 25.9H20.9667V23.4333H16.0333V25.9Z" fill="#FF664E"/>
</g>
<defs>
<clipPath id="clip0_8_877">
<rect width="37" height="37" fill="white"/>
</clipPath>
</defs>
</svg>
