<svg width="36" height="36" viewBox="0 0 36 36" fill="none" xmlns="http://www.w3.org/2000/svg">
<g clip-path="url(#clip0_41_29)">
<path d="M34.0281 30.7156V10.3731C34.0281 9.1587 33.0609 8.11268 31.8467 8.11268H23.8873V4.6053C23.8873 3.39093 22.9077 2.3662 21.6935 2.3662H21.1831V1.90766C21.1831 0.879718 20.3282 0 19.3003 0H6.6029C5.57496 0 4.61986 0.879718 4.61986 1.90766V2.3662H4.20966C2.99529 2.3662 1.91563 3.39093 1.91563 4.6053V30.7156C0.901547 31.0606 0.0669556 32.0866 0.0669556 33.2958C0.0669556 34.7868 1.32594 36 2.81698 36H33.2395C34.7306 36 35.9334 34.7868 35.9334 33.2958C35.9333 32.0866 35.0422 31.0606 34.0281 30.7156ZM15.9436 33.1268H9.85912V27.5493H15.9436V33.1268ZM20.845 23.3239H4.95772V20.2817H20.845V23.3239ZM20.845 16.3944H4.95772V13.3521H20.845V16.3944ZM20.845 9.46479H4.95772V6.42253H20.845V9.46479ZM31.1549 23.3239H25.2394V20.2817H31.1549V23.3239ZM31.1549 16.3944H25.2394V13.3521H31.1549V16.3944Z" fill="#FF664E"/>
</g>
<defs>
<clipPath id="clip0_41_29">
<rect width="36" height="36" fill="white"/>
</clipPath>
</defs>
</svg>
