<svg width="38" height="38" viewBox="0 0 38 38" fill="none" xmlns="http://www.w3.org/2000/svg">
<g clip-path="url(#clip0_41_46)">
<path d="M4.163 5.21582L4.62082 4.76149L5.07795 5.21792L6.02635 6.16492L6.48626 6.62274L6.02704 7.08266L3.00834 10.1021L4.48773 11.5815L5.84308 10.2261L6.3023 9.76688L6.75942 10.2261L7.70851 11.1717L8.16773 11.6302L7.70921 12.0894L6.35107 13.4462L7.83255 14.9277L9.18721 13.5702L9.64503 13.1124L10.1042 13.5702L11.0526 14.5179L11.5126 14.9751L11.0526 15.4343L9.69729 16.791L10.8366 17.9296L17.9283 10.8379L7.35243 0.261302C7.18297 0.0944794 6.95471 0.000976562 6.71692 0.000976562C6.47912 0.000976562 6.25086 0.0944794 6.0814 0.261302L0.261398 6.0813C0.0943652 6.25079 0.000732422 6.4792 0.000732422 6.71716C0.000732422 6.95512 0.0943652 7.18354 0.261398 7.35303L1.1436 8.23383L4.04732 5.32941L4.163 5.21582ZM30.3711 14.5716L23.4299 7.63107L18.6956 12.3654L11.2944 19.7658L3.66964 27.3892L4.00551 27.6185L5.25982 28.4742L5.39083 28.5634L5.46609 28.7028L5.53577 28.8268L6.80402 31.1849L9.28616 32.5207L9.42552 32.596L9.51472 32.727L10.3272 33.9207L10.606 34.3325L18.2336 26.7056L26.7015 18.2377L30.3711 14.5716ZM37.7395 30.649L27.1643 20.0724L20.0711 27.1662L21.2105 28.3049L22.5665 26.9488L23.025 26.4882L23.4842 26.9495L24.4312 27.8986L24.8891 28.3564L24.4312 28.815L23.0752 30.1703L24.5553 31.6504L25.912 30.2937L26.3712 29.8358L26.8298 30.2937L27.7761 31.2413L28.2353 31.6999L27.7761 32.1584L26.4193 33.5144L27.8994 34.9945L30.8031 32.0894L30.9209 31.973L31.3794 31.518L31.8365 31.9751L32.7836 32.9221L33.2414 33.382L32.7836 33.8406L29.7662 36.8579L30.6477 37.7387C30.8173 37.9059 31.0458 37.9997 31.284 37.9997C31.5221 37.9997 31.7507 37.9059 31.9202 37.7387L34.8302 34.8294L37.7395 31.9173C37.9061 31.7479 37.9995 31.5197 37.9995 31.2821C37.9995 31.0445 37.9061 30.8164 37.7395 30.6469V30.649ZM5.77757 32.4748L5.60615 32.3828L5.51417 32.212L5.25634 31.7333L4.15254 29.6797L3.47174 29.217L3.00346 28.8972L2.41184 32.5688L5.43472 35.5896L9.1001 35.0001L8.30779 33.8371L5.77757 32.4748ZM36.0726 8.86725C36.2392 8.69782 36.3326 8.46972 36.3326 8.23209C36.3326 7.99447 36.2392 7.76636 36.0726 7.59693L30.4018 1.92745C30.2323 1.76084 30.0042 1.66746 29.7666 1.66746C29.529 1.66746 29.3009 1.76084 29.1314 1.92745L25.951 5.10851L32.8916 12.0497L36.0726 8.86725ZM31.7446 13.196L24.8034 6.25551L24.5769 6.48198L31.5181 13.4225L31.7446 13.196ZM1.97771 35.2635L1.83346 36.1694L3.4571 35.9095L2.09478 34.5458L1.97771 35.2635Z" fill="#FF664E"/>
</g>
<defs>
<clipPath id="clip0_41_46">
<rect width="38" height="38" fill="white"/>
</clipPath>
</defs>
</svg>
