<svg width="44" height="44" viewBox="0 0 44 44" fill="none" xmlns="http://www.w3.org/2000/svg">
<g clip-path="url(#clip0_41_94)">
<path d="M38.1382 5.85541C27.4077 5.85541 22.6096 0.306075 22.5641 0.250325C22.2846 -0.0834417 21.7161 -0.0834417 21.4366 0.250325C21.3904 0.306809 16.6414 5.85541 5.86255 5.85541C5.4569 5.85541 5.129 6.18331 5.129 6.58896V20.5888C5.129 28.242 8.56936 35.5152 14.3322 40.0434C16.6553 41.8692 19.1655 43.1903 21.7924 43.9701C21.8606 43.9899 21.9303 44.0002 22.0007 44.0002C22.0711 44.0002 22.1408 43.9899 22.2091 43.9701C24.8359 43.1903 27.3461 41.8699 29.6693 40.0434C35.4314 35.5144 38.8725 28.2413 38.8725 20.5888V6.58896C38.8717 6.18331 38.5438 5.85541 38.1382 5.85541ZM32.2697 23.1739C32.2697 23.8803 31.6536 24.9278 30.8026 24.9278H28.9152C28.7281 24.9278 28.6379 24.9799 28.6188 24.999C28.6254 24.9887 28.6577 25.0547 28.7523 25.1493L30.0625 26.4595C30.6031 27.0001 30.6031 27.8796 30.0625 28.4202L28.3929 30.0905C27.8684 30.615 26.9559 30.615 26.4314 30.0905L25.1213 28.7804C25.0941 28.754 25.0464 28.7401 24.9804 28.7401C24.6459 28.7401 24.2014 29.0753 24.2014 29.3291L24.2021 30.8865C24.2051 31.2048 24.2095 31.6398 23.883 31.9699C23.7502 32.1042 23.5148 32.2633 23.1458 32.2633H20.7845C20.414 32.2633 20.1837 32.1012 20.0553 31.9655C19.7524 31.6442 19.7766 31.2342 19.7927 30.9635C19.7964 30.9092 19.8001 30.8527 19.8001 30.7962V29.3291C19.8001 29.1017 19.3431 28.7401 18.9631 28.7401C18.9205 28.7401 18.845 28.7452 18.8098 28.7804L17.4996 30.0905C16.9752 30.6143 16.0633 30.615 15.5389 30.0905L13.8693 28.4202C13.3287 27.8796 13.3287 27.0001 13.8693 26.4595L15.1787 25.1493C15.3173 25.0107 15.3445 24.6865 15.2366 24.4282C15.2212 24.3894 15.1339 24.195 15.0151 24.195H13.1974C12.4293 24.195 11.7302 23.4959 11.7302 22.7279V20.814C11.7302 20.1076 12.3464 19.0601 13.1974 19.0601H15.0151C15.2022 19.0601 15.2924 19.008 15.3115 18.9889C15.3034 19.008 15.2682 18.9288 15.1779 18.8386L13.8686 17.5284C13.6067 17.2673 13.4614 16.9189 13.4614 16.5484C13.4614 16.1772 13.6059 15.8295 13.8693 15.5669L15.5381 13.8974C16.0626 13.3721 16.9744 13.3729 17.4989 13.8974L18.809 15.2075C18.8751 15.2728 18.9968 15.3109 19.1435 15.3109C19.481 15.3109 19.7993 15.1151 19.7993 14.9639V13.1117C19.7993 12.3466 20.4214 11.7246 21.1865 11.7246H22.8135C23.5786 11.7246 24.2007 12.3466 24.2007 13.1117V14.9639C24.2007 15.0307 24.2447 15.0967 24.3298 15.1605C24.4537 15.2537 24.6349 15.3109 24.8036 15.3109C24.8829 15.3109 25.0318 15.297 25.1213 15.2075L26.4314 13.8974C26.9559 13.3729 27.8684 13.3729 28.3929 13.8974L30.0625 15.5677C30.6031 16.1083 30.6031 16.9878 30.0625 17.5284L28.7523 18.8386C28.6555 18.9354 28.6298 19.0058 28.6284 19.0234C28.6313 18.9985 28.7201 19.0601 28.9159 19.0601H30.8034C31.6543 19.0601 32.2705 20.1076 32.2705 20.814V23.1739H32.2697Z" fill="#FF664E"/>
<path d="M21.9648 18.3257C19.9424 18.3257 18.297 19.971 18.297 21.9935C18.297 24.0159 19.9424 25.6612 21.9648 25.6612C23.9872 25.6612 25.6325 24.0159 25.6325 21.9935C25.6325 19.971 23.9872 18.3257 21.9648 18.3257Z" fill="#FF664E"/>
</g>
<defs>
<clipPath id="clip0_41_94">
<rect width="44" height="44" fill="white"/>
</clipPath>
</defs>
</svg>
