<svg width="36" height="36" viewBox="0 0 36 36" fill="none" xmlns="http://www.w3.org/2000/svg">
<path d="M32.6577 27.9062H24.6602V36.0002L32.6577 27.9062Z" fill="#FF664E"/>
<path d="M32.6577 2.24997C32.6577 1.00631 31.6514 0 30.4077 0H5.59219C4.34971 0 3.34222 1.00631 3.34222 2.24997V33.75C3.34222 34.9937 4.34965 36 5.59219 36H22.3716V26.4942C22.3716 25.8723 22.8747 25.3692 23.4966 25.3692H32.6577V2.24997ZM6.72478 5.63759H18V8.17449H6.72478V5.63759ZM6.72478 12.6846H18V15.2215H6.72478V12.6846ZM18 29.3155H6.72478V26.7786H18V29.3155ZM28.7114 22.2685H6.72478V19.7316H28.7114V22.2685ZM28.7114 15.2215H21.6644V5.63759H28.7114V15.2215Z" fill="#FF664E"/>
</svg>
