<svg width="38" height="38" viewBox="0 0 38 38" fill="none" xmlns="http://www.w3.org/2000/svg">
<path d="M7.48484 38H30.5151C31.4691 38 32.2424 37.2266 32.2424 36.2727V16.697C32.2424 15.7431 31.4691 14.9697 30.5151 14.9697H28.7879V9.78788C28.7879 4.39084 24.397 0 19 0C13.603 0 9.21211 4.39084 9.21211 9.78788V14.9697H7.48484C6.53093 14.9697 5.75757 15.7431 5.75757 16.697V36.2727C5.75757 37.2266 6.53093 38 7.48484 38ZM23.8917 25.2592L18.9978 30.1531C18.6605 30.4904 18.2185 30.6591 17.7765 30.6591C17.3346 30.6591 16.8924 30.4904 16.5552 30.1531L14.1082 27.7061C13.4337 27.0316 13.4337 25.9381 14.1082 25.2634C14.7827 24.5889 15.8764 24.5889 16.5509 25.2634L17.7766 26.489L21.4493 22.8165C22.1237 22.1419 23.2174 22.1419 23.892 22.8165C24.5664 23.4911 24.5664 24.5846 23.8917 25.2592ZM12.6667 9.78788C12.6667 6.29568 15.5078 3.45455 19 3.45455C22.4922 3.45455 25.3333 6.29568 25.3333 9.78788V14.9697H12.6667V9.78788Z" fill="#FF664E"/>
</svg>
