<svg width="35" height="35" viewBox="0 0 35 35" fill="none" xmlns="http://www.w3.org/2000/svg">
<g clip-path="url(#clip0_41_68)">
<path d="M1.70438 16.2108C1.70438 15.9098 1.77797 15.6018 1.92499 15.3839C2.07202 15.1658 2.27397 15.0605 2.53084 15.0605C2.81812 15.0605 3.03361 15.1467 3.17733 15.3155C3.32089 15.4847 3.39282 15.7121 3.39282 15.996C3.39282 16.1954 3.32179 16.4308 3.17988 16.701C3.03798 16.9715 2.78892 17.2792 2.48796 17.624L0.0875761 20.1187V21.1768H5.20405V19.9729H2.42942L2.41407 19.9139L3.41298 18.83C4.06202 18.1236 4.50716 17.5839 4.74899 17.2256C4.99051 16.8673 5.11135 16.4514 5.11135 15.985C5.11135 15.2922 4.88397 14.7446 4.42951 14.3455C3.97489 13.9469 3.34196 13.7466 2.53084 13.7466C1.76698 13.7466 1.15346 13.9836 0.690417 14.4584C0.227376 14.9332 0.00420768 15.5047 0.0212124 16.1874L0.0314454 16.2106H1.70438V16.2108Z" fill="#FF664E"/>
<path d="M1.74292 8.68648H0.0875854V10.0408H5.20406V8.68648H3.54873V2.57861L0.0875854 3.09568V4.32243H1.74292V8.68648Z" fill="#FF664E"/>
<path d="M4.067 28.5307C4.41507 28.3718 4.69316 28.1513 4.90098 27.8692C5.10895 27.587 5.21278 27.2784 5.21278 26.944C5.21278 26.2713 4.97276 25.7517 4.49287 25.385C4.01297 25.0181 3.37251 24.835 2.57133 24.835C1.88181 24.835 1.29537 25.0175 0.812014 25.3826C0.328658 25.7476 0.0970623 26.2504 0.117378 26.8385L0.127611 26.8952H1.79062C1.79062 26.5943 1.87489 26.5005 2.04403 26.372C2.21303 26.2435 2.40911 26.1663 2.63213 26.1663C2.91609 26.1663 3.13234 26.2391 3.28117 26.398C3.42984 26.557 3.50418 26.7496 3.50418 26.9828C3.50418 27.2769 3.42142 27.5207 3.25588 27.6863C3.0902 27.852 2.85364 27.9486 2.54605 27.9486H1.74291V29.1525H2.54605C2.8875 29.1525 3.1519 29.2533 3.33955 29.4172C3.52721 29.5812 3.62096 29.8518 3.62096 30.21C3.62096 30.467 3.53127 30.6846 3.35234 30.8536C3.17312 31.0226 2.93309 31.1093 2.63228 31.1093C2.36863 31.1093 2.14486 30.9956 1.96051 30.8352C1.77617 30.6748 1.68422 30.5069 1.68422 30.2059H0.0109851L0.000902619 30.2709C-0.0159517 30.9604 0.234906 31.5043 0.753777 31.8676C1.27265 32.2308 1.8785 32.4212 2.57133 32.4212C3.37582 32.4212 4.0366 32.2322 4.55381 31.8451C5.07103 31.4582 5.32941 30.9287 5.32941 30.2527C5.32941 29.8404 5.21805 29.4875 4.99488 29.1916C4.77171 28.8956 4.46247 28.6761 4.067 28.5307Z" fill="#FF664E"/>
<path d="M35 24.7881H7.7623V29.7541H35V24.7881Z" fill="#FF664E"/>
<path d="M35 15.0068H7.7623V19.9728H35V15.0068Z" fill="#FF664E"/>
<path d="M35 4.92432H7.7623V9.89031H35V4.92432Z" fill="#FF664E"/>
</g>
<defs>
<clipPath id="clip0_41_68">
<rect width="35" height="35" fill="white"/>
</clipPath>
</defs>
</svg>
