<svg width="24" height="24" viewBox="0 0 24 24" fill="none" xmlns="http://www.w3.org/2000/svg">
<g clip-path="url(#clip0_82_21)">
<path d="M11.2969 12.7219H12.7031V14.1282H11.2969V12.7219Z" fill="#909090"/>
<path d="M8.48438 15.0657H9.89062V16.4719H8.48438V15.0657Z" fill="#909090"/>
<path d="M14.1094 15.0657H15.5156V16.4719H14.1094V15.0657Z" fill="#909090"/>
<path d="M15.5156 17.4141H16.9219V18.8203H15.5156V17.4141Z" fill="#909090"/>
<path d="M7.07812 17.4141H8.48438V18.8203H7.07812V17.4141Z" fill="#909090"/>
<path d="M16.9266 19.7578H18.3328V21.1641H16.9266V19.7578Z" fill="#909090"/>
<path d="M5.66718 19.7578H7.07342V21.1641H5.66718V19.7578Z" fill="#909090"/>
<path d="M11.2969 22.1016H12.7031V23.5078H11.2969V22.1016Z" fill="#909090"/>
<path d="M11.2969 19.7578H12.7031V21.1641H11.2969V19.7578Z" fill="#909090"/>
<path d="M11.2969 17.4141H12.7031V18.8203H11.2969V17.4141Z" fill="#909090"/>
<path d="M11.2969 15.0657H12.7031V16.4719H11.2969V15.0657Z" fill="#909090"/>
<path d="M18.3328 22.1016H19.7391V23.5078H18.3328V22.1016Z" fill="#909090"/>
<path d="M16.4531 12.7219H17.8594V14.1282H16.4531V12.7219Z" fill="#909090"/>
<path d="M17.8641 15.0657H19.2703V16.4719H17.8641V15.0657Z" fill="#909090"/>
<path d="M19.2703 17.4141H20.6766V18.8203H19.2703V17.4141Z" fill="#909090"/>
<path d="M20.6766 19.7578H22.0828V21.1641H20.6766V19.7578Z" fill="#909090"/>
<path d="M22.0828 22.1016H23.4891V23.5078H22.0828V22.1016Z" fill="#909090"/>
<path d="M4.26093 22.1016H5.66718V23.5078H4.26093V22.1016Z" fill="#909090"/>
<path d="M6.13593 12.7219H7.54218V14.1282H6.13593V12.7219Z" fill="#909090"/>
<path d="M4.72968 15.0657H6.13592V16.4719H4.72968V15.0657Z" fill="#909090"/>
<path d="M3.32343 17.4141H4.72968V18.8203H3.32343V17.4141Z" fill="#909090"/>
<path d="M1.91718 19.7578H3.32343V21.1641H1.91718V19.7578Z" fill="#909090"/>
<path d="M0.510925 22.1016H1.91718V23.5078H0.510925V22.1016Z" fill="#909090"/>
<path d="M0 0.492188H24V3.35156H0V0.492188Z" fill="#909090"/>
<path d="M9.89064 7.9687V9.76401H7.15314V11.1703H16.8469V9.76401H14.1094V7.9687C15.2859 7.31714 16.1297 6.14058 16.3313 4.76245H7.66876C7.86564 6.14058 8.71407 7.31714 9.89064 7.9687Z" fill="#909090"/>
</g>
<defs>
<clipPath id="clip0_82_21">
<rect width="24" height="24" fill="white"/>
</clipPath>
</defs>
</svg>
