<svg width="27" height="27" viewBox="0 0 27 27" fill="none" xmlns="http://www.w3.org/2000/svg">
<g clip-path="url(#clip0_10_926)">
<path fill-rule="evenodd" clip-rule="evenodd" d="M8.48672 8.96484V10.3852C8.48672 10.7086 8.85234 11.0672 9.16875 11.0672H12.6984V14.3438C12.6984 14.5828 11.1164 14.9625 11.1164 16.6078C10.4977 16.7555 7.95937 17.6344 7.63594 17.6625C7.58672 17.0578 6.34922 15.9258 5.16094 15.9258H4.85156C3.44531 15.9258 2.10938 17.2617 2.10938 18.668V18.9844C2.10938 20.3906 3.44531 21.7266 4.85156 21.7266C5.43516 21.7266 5.65312 21.7195 6.19453 21.4875C6.70781 21.2625 7.26328 20.7844 7.52344 20.2852C7.66406 20.018 7.85391 19.6734 7.85391 19.3008C8.20547 19.2164 8.44453 19.118 8.78203 19.0195L10.6383 18.45C10.8984 18.3656 11.3625 18.2531 11.5945 18.1406C12.4453 19.4062 14.5406 19.4062 15.3914 18.1406L19.132 19.3008C19.132 20.1516 19.9898 21.1219 20.7563 21.4734C22.718 22.3594 24.8766 20.8687 24.8766 18.9844V18.668C24.8766 17.2617 23.5406 15.9258 22.1344 15.9258C21.0727 15.9258 20.3484 16.2211 19.7227 16.9945C19.5961 17.1492 19.3641 17.4375 19.343 17.6695L17.5992 17.1492C17.318 17.0578 17.0156 16.9664 16.7555 16.882C16.4742 16.7906 16.1297 16.6711 15.8625 16.6148C15.8625 14.9625 14.2805 14.5898 14.2805 14.3508V11.0813H17.8102C18.1336 11.0813 18.4922 10.7156 18.4922 10.3992V8.97891C18.4922 7.76953 17.543 6.39141 16.7555 5.97656C16.6219 6.06797 16.5727 6.13828 16.4531 6.25781C16.1789 6.525 15.743 6.77813 15.4055 6.94688C15.1313 7.0875 14.8781 7.17891 14.5547 7.25625C13.5703 7.49531 12.5086 7.41797 11.6086 6.96094C11.257 6.78516 10.8352 6.54609 10.5469 6.27891C10.4203 6.15938 10.3641 6.06797 10.2164 5.97656C9.80156 6.19453 9.56953 6.48984 9.30937 6.80625C8.90156 7.29844 8.48672 8.2125 8.48672 8.96484Z" fill="#909090"/>
<path fill-rule="evenodd" clip-rule="evenodd" d="M0 24.8907V26.311C0 26.6344 0.365625 26.993 0.682031 26.993H9.33047C9.65391 26.993 10.0125 26.6274 10.0125 26.311V24.8907C10.0125 23.6813 9.06328 22.3031 8.27578 21.8883C7.93828 22.1133 7.96641 22.3313 6.92578 22.8586C5.47031 23.5899 3.70547 23.393 2.39766 22.4508C2.04609 22.1977 1.88437 21.9867 1.74375 21.8953C1.27969 22.1274 0.84375 22.6406 0.569531 23.0836C0.316406 23.4914 0 24.2508 0 24.8907Z" fill="#909090"/>
<path fill-rule="evenodd" clip-rule="evenodd" d="M16.9805 24.8907V26.311C16.9805 26.6344 17.3461 26.993 17.6625 26.993H26.3109C26.6344 26.993 26.993 26.6274 26.993 26.311V24.8907C26.993 23.6813 26.0438 22.3031 25.2563 21.8883C25.1227 21.9797 25.0734 22.05 24.9539 22.1696C24.8414 22.275 24.75 22.3383 24.6305 22.4297C22.9148 23.6883 20.4891 23.5477 19.0477 22.1977C18.9211 22.0782 18.8648 21.9867 18.7172 21.8953C18.3023 22.1133 18.0703 22.4086 17.8102 22.725C17.7047 22.8516 17.6344 22.9571 17.55 23.0977C17.2898 23.4914 16.9805 24.2508 16.9805 24.8907Z" fill="#909090"/>
<path fill-rule="evenodd" clip-rule="evenodd" d="M10.5961 2.74219V3.05859C10.5961 4.46484 11.932 5.80078 13.3383 5.80078H13.6547C15.0609 5.80078 16.3969 4.46484 16.3969 3.05859V2.74219C16.3969 1.33594 15.0609 0 13.6547 0H13.3383C11.932 0 10.5961 1.33594 10.5961 2.74219Z" fill="#909090"/>
</g>
<defs>
<clipPath id="clip0_10_926">
<rect width="27" height="27" fill="white"/>
</clipPath>
</defs>
</svg>
