<svg width="25" height="25" viewBox="0 0 25 25" fill="none" xmlns="http://www.w3.org/2000/svg">
<g clip-path="url(#clip0_10_939)">
<path fill-rule="evenodd" clip-rule="evenodd" d="M11.9141 19.1406H21.0417C22.3438 19.1406 22.2005 20.2214 21.7643 20.5469C21.6016 20.6641 21.3086 20.7031 21.0417 20.7031H11.9141C11.6211 20.7031 11.3802 20.6641 11.2174 20.5208C10.5924 19.9674 10.918 19.1406 11.9141 19.1406ZM14.7461 16.1589C15.8789 16.1589 15.6966 17.6693 14.7982 17.6693C13.8346 17.6758 13.7565 16.1589 14.7461 16.1589ZM11.569 16.1589C12.6367 16.1589 12.6172 17.3763 11.901 17.6172C11.3542 17.7995 10.7487 17.3177 10.944 16.6602C11.0091 16.4453 11.2826 16.1589 11.569 16.1589ZM10.8854 13.7695V5.37109C10.8854 4.91536 11.1458 4.44661 11.569 4.44661H21.9206C22.2982 4.44661 22.6497 4.73307 22.6497 5.07812V13.9648C22.6497 14.401 22.2982 14.694 21.8685 14.694H11.7188C11.1784 14.694 10.8854 14.3164 10.8854 13.7695ZM8.59375 23.1445H24.3164C24.681 23.1445 25 22.9036 25 22.5586V2.44141C25 2.09635 24.681 1.85547 24.3164 1.85547H8.59375V23.1445Z" fill="#909090"/>
<path fill-rule="evenodd" clip-rule="evenodd" d="M0 2.53906V22.4609C0 23.7565 1.24349 25 2.53906 25H4.44661C5.20182 24.9414 5.85938 24.7201 6.41276 24.0365C6.92057 23.3984 7.08333 22.8841 7.08333 21.7773V3.22266C7.08333 1.85547 6.71875 0.917969 5.65104 0.3125C5.30599 0.117188 4.8763 0.0325521 4.41406 0H2.53906C1.24349 0 0 1.24349 0 2.53906Z" fill="#909090"/>
<path fill-rule="evenodd" clip-rule="evenodd" d="M12.4479 13.1836C13.75 13.1836 12.7734 13.1966 13.6784 11.9271C13.9193 11.5886 14.3229 11.1784 14.6875 10.9896C14.6224 10.6966 14.2513 10.28 14.2513 9.52476C14.2513 8.81512 14.6029 8.11851 14.9674 7.75393C16.875 5.83986 20.0391 7.77346 19.1862 10.3125C19.1406 10.4427 19.1146 10.5404 19.0495 10.6641C18.9714 10.8008 18.9258 10.8268 18.8867 10.9896C19.6094 11.3737 20.1367 12.1029 20.3581 12.8906C20.4557 13.2422 20.2865 13.1901 21.1328 13.1901V5.96356H12.4479V13.1836Z" fill="#909090"/>
<path fill-rule="evenodd" clip-rule="evenodd" d="M14.7461 13.1836H18.8477C18.7695 12.845 18.457 12.5065 18.1901 12.3242C17.5456 11.8815 16.0417 11.901 15.3971 12.3242C15.1172 12.5065 14.8242 12.8255 14.7461 13.1836Z" fill="#909090"/>
<path fill-rule="evenodd" clip-rule="evenodd" d="M15.7682 9.47266C15.7682 9.98698 16.1979 10.4948 16.6927 10.4948C17.0508 10.4948 17.22 10.4948 17.5391 10.1693C18.0924 9.60286 17.7604 8.49609 16.7448 8.49609C16.2435 8.49609 15.7682 8.97135 15.7682 9.47266Z" fill="#909090"/>
</g>
<defs>
<clipPath id="clip0_10_939">
<rect width="25" height="25" fill="white"/>
</clipPath>
</defs>
</svg>
