<svg width="27" height="25" viewBox="0 0 27 25" fill="none" xmlns="http://www.w3.org/2000/svg">
<g clip-path="url(#clip0_10_931)">
<path fill-rule="evenodd" clip-rule="evenodd" d="M22.2539 19.3952C22.2539 18.385 22.0289 17.1672 23.0414 17.1672C24.0609 17.1672 23.8289 18.3919 23.8289 19.3952C23.8359 20.5023 22.2539 20.5023 22.2539 19.3952ZM19.0898 19.3952C19.0898 18.385 18.8648 17.1672 19.8773 17.1672C20.8969 17.1672 20.6648 18.3919 20.6648 19.3952C20.6719 20.5023 19.0898 20.5023 19.0898 19.3952ZM15.9258 19.3952C15.9258 18.385 15.7008 17.1672 16.7133 17.1672C17.7328 17.1672 17.5008 18.3919 17.5008 19.3952C17.5078 20.5023 15.9258 20.5023 15.9258 19.3952ZM0 16.1777V21.2081C0 22.336 1.09688 23.3878 2.475 23.3878H3.16406C3.16406 23.9136 3.00234 24.9931 3.95156 24.9931C4.89375 24.9931 4.73906 23.9413 4.73906 23.3878H22.2469C22.2469 23.9136 22.0852 24.9931 23.0344 24.9931C23.9766 24.9931 23.8219 23.9413 23.8219 23.3878C24.7781 23.3878 25.4602 23.4293 26.2055 22.7788C26.5641 22.4675 26.9859 21.8447 26.9859 21.2081V16.1777C26.9859 15.548 26.5781 14.946 26.2336 14.6346C25.8328 14.2748 25.2563 13.998 24.5039 13.998H2.475C1.09688 13.998 0 15.0567 0 16.1777Z" fill="#909090"/>
<path fill-rule="evenodd" clip-rule="evenodd" d="M4.85156 3.98559C4.85156 4.42844 5.18906 4.76057 5.69531 4.76057C6.10312 4.76057 6.30703 4.49763 6.525 4.28313C6.99609 3.81261 7.50234 3.49431 8.04375 3.1345C10.793 1.31468 15.1172 1.05866 18.0703 2.65014C18.6469 2.96151 19.2023 3.23829 19.7297 3.6673C19.9758 3.86796 20.2219 4.04787 20.4398 4.26237C20.7141 4.53223 20.8687 4.76749 21.3469 4.76749C21.7969 4.76749 22.1344 4.4146 22.1344 3.99251C22.1344 3.14142 19.343 1.50151 18.675 1.16937C15.5602 -0.373666 11.4609 -0.387505 8.33906 1.14861C7.50937 1.55686 6.19453 2.36644 5.5125 3.03763C5.2875 3.27289 4.85156 3.57042 4.85156 3.98559Z" fill="#909090"/>
<path fill-rule="evenodd" clip-rule="evenodd" d="M7.11562 6.16526C7.11562 6.66346 7.47422 6.9956 7.90312 6.9956C8.34609 6.9956 8.73984 6.47664 9.04219 6.24829C9.42187 5.95768 9.74531 5.72933 10.1883 5.50791C12.3961 4.42848 14.5898 4.42848 16.7977 5.50791C17.2477 5.72933 17.5711 5.95768 17.9437 6.24829C18.2391 6.47664 18.6398 6.9956 19.0828 6.9956C19.793 6.9956 20.257 6.04071 19.4555 5.43872L17.3461 3.98563C14.7727 2.74705 12.2273 2.8716 9.64687 3.98563L7.86797 5.14118C7.45312 5.52175 7.11562 5.70166 7.11562 6.16526Z" fill="#909090"/>
<path fill-rule="evenodd" clip-rule="evenodd" d="M0.0562515 3.88177C0.0562515 4.32461 0.738283 5.66007 0.921095 6.08908L3.69141 12.4965H5.42813C5.35781 12.199 2.46797 5.62547 2.26406 5.17571C2.08828 4.7813 1.90547 4.36613 1.74375 3.97864C1.58906 3.61191 1.41328 3.10679 0.83672 3.10679C0.421876 3.09987 0.0562515 3.45276 0.0562515 3.88177Z" fill="#909090"/>
<path fill-rule="evenodd" clip-rule="evenodd" d="M21.5648 12.4965H23.3016L26.0578 6.13065C26.2758 5.62553 26.9367 4.29699 26.9367 3.83339C26.9367 3.28675 26.1211 2.79547 25.5656 3.36978C25.3758 3.57045 24.8555 4.87131 24.7219 5.18268L21.5648 12.4965Z" fill="#909090"/>
<path fill-rule="evenodd" clip-rule="evenodd" d="M9.33047 8.39335C9.33047 8.84312 9.675 9.16833 10.2234 9.16833C10.7297 9.16833 11.4609 7.87439 13.2258 7.87439C14.843 7.87439 15.2367 8.11657 16.3547 9.00226C16.9031 9.43819 17.6555 8.99535 17.6555 8.39335C17.6555 7.74984 16.5656 7.12017 16.0453 6.86415C14.4211 6.06149 12.5508 6.07533 10.9406 6.87107C10.4273 7.12709 9.33047 7.74292 9.33047 8.39335Z" fill="#909090"/>
<path fill-rule="evenodd" clip-rule="evenodd" d="M11.6016 10.4692C11.6016 11.0158 11.8547 11.3894 12.3961 11.3825C12.9094 11.3756 12.9586 10.9397 13.5 10.9397C14.0414 10.9397 14.0977 11.3756 14.6039 11.3825C15.1383 11.3894 15.3984 11.0227 15.3984 10.4692C15.3984 9.74261 13.3383 8.62858 11.8758 9.96403C11.7492 10.0747 11.6016 10.2547 11.6016 10.4692Z" fill="#909090"/>
</g>
<defs>
<clipPath id="clip0_10_931">
<rect width="27" height="25" fill="white"/>
</clipPath>
</defs>
</svg>
