<svg width="22" height="22" viewBox="0 0 22 22" fill="none" xmlns="http://www.w3.org/2000/svg">
<path d="M18.4037 0H3.59633C3.05306 0 2.61755 0.43551 2.61755 0.978775V21.0212C2.61755 21.5645 3.05306 22 3.59633 22H18.4037C18.9469 22 19.3825 21.5645 19.3825 21.0212V0.978775C19.3825 0.43551 18.9425 0 18.4037 0ZM6.26776 19.8718C5.55388 19.8718 4.95674 19.2971 4.95674 18.5608C4.95674 17.8469 5.53143 17.2498 6.26776 17.2498C7.00408 17.2498 7.57878 17.8245 7.57878 18.5608C7.57878 19.2927 6.98612 19.8718 6.26776 19.8718ZM6.26776 15.5571C5.55388 15.5571 4.95674 14.9824 4.95674 14.2461C4.95674 13.5143 5.53143 12.9351 6.26776 12.9351C7.00408 12.9351 7.57878 13.5098 7.57878 14.2461C7.57878 14.9824 6.98612 15.5571 6.26776 15.5571ZM6.26776 11.229C5.55388 11.229 4.95674 10.6543 4.95674 9.91796C4.95674 9.18163 5.53143 8.60694 6.26776 8.60694C7.00408 8.60694 7.57878 9.18163 7.57878 9.91796C7.57878 10.6543 6.98612 11.229 6.26776 11.229ZM11 19.8718C10.2861 19.8718 9.68898 19.2971 9.68898 18.5608C9.68898 17.8469 10.2637 17.2498 11 17.2498C11.7318 17.2498 12.311 17.8245 12.311 18.5608C12.311 19.2927 11.7139 19.8718 11 19.8718ZM11 15.5571C10.2861 15.5571 9.68898 14.9824 9.68898 14.2461C9.68898 13.5143 10.2637 12.9351 11 12.9351C11.7318 12.9351 12.311 13.5098 12.311 14.2461C12.311 14.9824 11.7139 15.5571 11 15.5571ZM11 11.229C10.2861 11.229 9.68898 10.6543 9.68898 9.91796C9.68898 9.18163 10.2637 8.60694 11 8.60694C11.7318 8.60694 12.311 9.18163 12.311 9.91796C12.311 10.6543 11.7139 11.229 11 11.229ZM15.7322 19.8718C15.0184 19.8718 14.4212 19.2971 14.4212 18.5608C14.4212 17.8469 14.9959 17.2498 15.7322 17.2498C16.4686 17.2498 17.0433 17.8245 17.0433 18.5608C17.0253 19.2927 16.4461 19.8718 15.7322 19.8718ZM15.7322 15.5571C15.0184 15.5571 14.4212 14.9824 14.4212 14.2461C14.4212 13.5143 14.9959 12.9351 15.7322 12.9351C16.4686 12.9351 17.0433 13.5098 17.0433 14.2461C17.0433 14.9824 16.4461 15.5571 15.7322 15.5571ZM15.7322 11.229C15.0184 11.229 14.4212 10.6543 14.4212 9.91796C14.4212 9.18163 14.9959 8.60694 15.7322 8.60694C16.4686 8.60694 17.0433 9.18163 17.0433 9.91796C17.0433 10.6543 16.4461 11.229 15.7322 11.229ZM17.1286 6.37102H4.87143V2.12816H17.1465V6.37102H17.1286Z" fill="#909090"/>
</svg>
