<svg width="24" height="24" viewBox="0 0 24 24" fill="none" xmlns="http://www.w3.org/2000/svg">
<g clip-path="url(#clip0_83_55)">
<path d="M21.7244 7.05762C20.469 7.05762 19.4471 8.0795 19.4471 9.3349C19.4471 10.1845 19.9197 10.9188 20.6125 11.3096C20.2327 14.3962 18.5754 17.0865 16.1844 18.8442C15.8791 18.5069 15.4435 18.2889 14.9538 18.2889H14.5238C17.389 16.6117 19.3223 13.5085 19.3223 9.95542C19.3223 4.62853 14.9875 0.29425 9.66117 0.29425C4.33372 0.29425 0 4.62853 0 9.95542C0 13.5085 1.93334 16.6117 4.79691 18.2894H4.36795C3.45263 18.2894 2.71175 19.0314 2.71175 19.9456V22.0495C2.71175 22.9638 3.45263 23.7057 4.36795 23.7057H14.9544C15.8686 23.7057 16.6106 22.9638 16.6106 22.0495V20.5755C19.6503 18.5798 21.7829 15.3171 22.2577 11.5432C23.2553 11.3014 24 10.4065 24 9.33545C24.0017 8.07894 22.9798 7.05762 21.7244 7.05762ZM9.66338 7.38886C11.08 7.38886 12.2294 8.53826 12.2294 9.95542C12.2294 11.3726 11.0794 12.5214 9.66338 12.5214C8.24567 12.5214 7.09792 11.3726 7.09792 9.95542C7.09737 8.53826 8.24512 7.38886 9.66338 7.38886ZM21.7244 8.71382C22.0661 8.71382 22.3455 8.99261 22.3455 9.3349C22.3455 9.67718 22.0661 9.95597 21.7244 9.95597C21.3821 9.95597 21.1033 9.67718 21.1033 9.3349C21.1033 8.99261 21.3815 8.71382 21.7244 8.71382Z" fill="#909090"/>
</g>
<defs>
<clipPath id="clip0_83_55">
<rect width="24" height="24" fill="white"/>
</clipPath>
</defs>
</svg>
