<svg width="24" height="23" viewBox="0 0 24 23" fill="none" xmlns="http://www.w3.org/2000/svg">
<g clip-path="url(#clip0_42_1314)">
<path d="M16.8512 0H7.14882C3.2069 0 0 3.07328 0 6.85095V16.149C0 19.9267 3.2069 23 7.14882 23H16.8512C20.7931 23 24 19.9267 24 16.149V6.85095C24 3.07328 20.7931 0 16.8512 0ZM21.588 16.149C21.588 18.6536 19.4701 20.6885 16.8512 20.6885H7.14882C4.53539 20.6885 2.41198 18.6588 2.41198 16.149V6.85095C2.41198 4.34642 4.52995 2.31148 7.14882 2.31148H16.8512C19.4646 2.31148 21.588 4.3412 21.588 6.85095V16.149Z" fill="#AB2A76"/>
<path d="M12 5.55176C8.5753 5.55176 5.79309 8.21805 5.79309 11.5C5.79309 14.782 8.5753 17.4483 12 17.4483C15.4247 17.4483 18.2069 14.782 18.2069 11.5C18.2069 8.21805 15.4247 5.55176 12 5.55176ZM12 15.1368C9.9038 15.1368 8.20507 13.5089 8.20507 11.5C8.20507 9.49119 9.9038 7.86324 12 7.86324C14.0962 7.86324 15.7949 9.49119 15.7949 11.5C15.7949 13.5089 14.0962 15.1368 12 15.1368Z" fill="#AB2A76"/>
<path d="M19.7096 5.5988C19.7096 6.38669 19.0454 7.02326 18.2232 7.02326C17.4011 7.02326 16.7368 6.38669 16.7368 5.5988C16.7368 4.81092 17.4011 4.17435 18.2232 4.17435C19.0399 4.16913 19.7096 4.81092 19.7096 5.5988Z" fill="#AB2A76"/>
</g>
<defs>
<clipPath id="clip0_42_1314">
<rect width="24" height="23" fill="white"/>
</clipPath>
</defs>
</svg>
