<svg width="20" height="26" viewBox="0 0 20 26" fill="none" xmlns="http://www.w3.org/2000/svg">
<path d="M10 0C4.62227 0 0.25 4.37227 0.25 9.75C0.25 16.9406 9.24336 25.4922 9.6293 25.8527C9.73594 25.9492 9.86797 26 10 26C10.132 26 10.2691 25.9492 10.3707 25.8527C10.7566 25.4922 19.75 16.9406 19.75 9.75C19.75 4.37227 15.3777 0 10 0ZM10 15.1684C7.01406 15.1684 4.58164 12.7359 4.58164 9.75C4.58164 6.76406 7.01406 4.33164 10 4.33164C12.9859 4.33164 15.4184 6.76406 15.4184 9.75C15.4184 12.7359 12.9859 15.1684 10 15.1684Z" fill="#BC4749"/>
<path d="M10 0C4.62227 0 0.25 4.37227 0.25 9.75C0.25 16.9406 9.24336 25.4922 9.6293 25.8527C9.73594 25.9492 9.86797 26 10 26C10.132 26 10.2691 25.9492 10.3707 25.8527C10.7566 25.4922 19.75 16.9406 19.75 9.75C19.75 4.37227 15.3777 0 10 0ZM10 15.1684C7.01406 15.1684 4.58164 12.7359 4.58164 9.75C4.58164 6.76406 7.01406 4.33164 10 4.33164C12.9859 4.33164 15.4184 6.76406 15.4184 9.75C15.4184 12.7359 12.9859 15.1684 10 15.1684Z" fill="url(#paint0_linear_20_4074)"/>
<defs>
<linearGradient id="paint0_linear_20_4074" x1="10" y1="0" x2="10" y2="26" gradientUnits="userSpaceOnUse">
<stop stop-color="#FD864E"/>
<stop offset="1" stop-color="#FF664E"/>
</linearGradient>
</defs>
</svg>
