<svg width="20" height="18" viewBox="0 0 20 18" fill="none" xmlns="http://www.w3.org/2000/svg">
<g clip-path="url(#clip0_79_13)">
<path d="M18.5468 0.200457L0.782999 7.45852C0.782999 7.45852 -0.0597351 7.75576 0.00662185 8.30875C0.0729789 8.86175 0.756456 9.11751 0.756456 9.11751L5.22228 10.6866L5.22892 10.6935V10.6866L15.9522 3.58755C15.9522 3.58755 16.5693 3.19354 16.5494 3.58755C16.5494 3.58755 16.6622 3.65668 16.3304 3.98156C15.9987 4.30645 7.9031 11.8825 7.9031 11.8825L7.88983 12.0276L15.1758 17.8479C16.3902 18.4009 16.8348 17.2465 16.8348 17.2465L20 0.635941C20 -0.47005 18.5401 0.200457 18.5468 0.200457Z" fill="#1393E2"/>
<path d="M10.6768 14.2535L7.79032 16.9977C7.79032 16.9977 7.5647 17.1774 7.31918 17.0668L7.86995 11.9724" fill="#1393E2"/>
</g>
<defs>
<clipPath id="clip0_79_13">
<rect width="20" height="18" fill="white"/>
</clipPath>
</defs>
</svg>
