<svg width="20" height="22" viewBox="0 0 20 22" fill="none" xmlns="http://www.w3.org/2000/svg">
<g clip-path="url(#clip0_79_2)">
<path d="M18.32 12.3241C17.8 16.7852 14.66 17.0704 14.08 17.2741C13.84 17.3555 11.54 17.9463 8.68001 17.763L5.56001 21.287V17.2333H5.54001C1.36001 16.0111 1.50001 11.4685 1.54001 9.08517C1.58001 6.70184 2.02001 4.74628 3.30001 3.42221C5.60001 1.26295 10.32 1.58888 10.32 1.58888C14.32 1.60925 16.22 2.85184 16.66 3.27962C18.12 4.58332 18.88 7.72036 18.32 12.3241ZM17.74 2.13888C17.22 1.64999 15.1 0.0407275 10.38 0.0203571C10.38 0.0203571 4.82001 -0.325939 2.10001 2.2611C0.600012 3.82962 0.0600118 6.13147 0.0200118 8.98332C-0.0399882 11.8352 -0.0999882 17.1926 4.84001 18.6389V20.8592C4.84001 20.8592 4.80001 21.7555 5.38001 21.9389C6.06001 22.163 6.46001 21.4704 7.12001 20.737C7.48001 20.3296 7.98001 19.7389 8.34001 19.2907C11.72 19.5963 14.32 18.9037 14.62 18.8018C15.3 18.5778 19.16 18.0481 19.8 12.7111C20.44 7.2111 19.48 3.70739 17.74 2.13888Z" fill="#7360F2"/>
<path d="M14.72 12.9963C14.72 12.9963 14.08 12.4463 13.78 12.2018C13.48 11.9778 13.02 11.6722 12.76 11.5296C12.3 11.2648 11.82 11.4278 11.62 11.6926L11.22 12.2222C11.02 12.487 10.68 12.4463 10.6 12.4259C10 12.263 9.36003 11.8963 8.70003 11.2444C8.04003 10.5926 7.64003 9.89999 7.50003 9.2074L7.48003 9.16666C7.44003 8.88147 7.48003 8.73888 7.60003 8.53518L7.62003 8.51481C7.90003 8.24999 8.40003 7.94444 8.48003 7.63888C8.68003 7.10925 7.80003 6.00925 7.68003 5.82592C7.68003 5.82592 7.04003 4.97036 6.82003 4.8074C6.58003 4.6037 6.20003 4.48147 5.82003 4.72592H5.80003C4.70003 5.47962 4.32003 5.9074 4.42003 6.55925L4.48003 6.82407C5.04003 8.59629 6.10003 10.5111 7.70003 12.2018C9.28003 13.8518 11 14.85 12.68 15.5426C13.12 15.6852 13.58 15.563 14.04 15.1555C14.4 14.8093 14.68 14.4426 14.88 14.0555C15.1 13.6481 15.02 13.2611 14.72 12.9963Z" fill="#7360F2"/>
<path d="M12.1 9.08516C12.04 9.08516 11.98 9.02405 11.98 8.96294C11.96 8.49442 11.84 8.14813 11.62 7.90368C11.4 7.65924 11.08 7.53702 10.66 7.51665C10.6 7.51665 10.54 7.45554 10.54 7.37405C10.54 7.29257 10.6 7.25183 10.68 7.25183C11.18 7.2722 11.56 7.43517 11.82 7.72035C12.08 8.00554 12.22 8.41294 12.26 8.94257C12.24 9.02405 12.18 9.08516 12.1 9.08516Z" fill="#7360F2"/>
<path d="M13.34 9.5333C13.26 9.5333 13.22 9.47219 13.22 9.39071C13.24 8.51479 12.98 7.76108 12.46 7.17034C12.2 6.86479 11.88 6.64071 11.52 6.47775C11.16 6.31479 10.74 6.21293 10.26 6.17219C10.2 6.17219 10.14 6.11108 10.14 6.0296C10.14 5.94812 10.2 5.90738 10.28 5.90738C11.28 5.98886 12.08 6.35553 12.64 6.98701C13.2 7.63886 13.48 8.4333 13.46 9.39071C13.48 9.47219 13.42 9.5333 13.34 9.5333Z" fill="#7360F2"/>
<path d="M14.62 10.0426C14.56 10.0426 14.5 9.98146 14.5 9.92035C14.5 9.14628 14.38 8.43331 14.16 7.8222C13.94 7.21109 13.6 6.68146 13.16 6.23331C12.72 5.78516 12.22 5.43887 11.68 5.21479C11.14 4.99072 10.52 4.8685 9.86002 4.8685C9.80002 4.8685 9.74002 4.80739 9.74002 4.74628C9.74002 4.66479 9.80002 4.62405 9.86002 4.62405C11.24 4.64442 12.4 5.11294 13.34 6.07035C13.8 6.53887 14.16 7.10924 14.4 7.76109C14.64 8.41294 14.76 9.14628 14.76 9.96109C14.76 9.98146 14.7 10.0426 14.62 10.0426Z" fill="#7360F2"/>
</g>
<defs>
<clipPath id="clip0_79_2">
<rect width="20" height="22" fill="white"/>
</clipPath>
</defs>
</svg>
